<svg xmlns="http://www.w3.org/2000/svg" width="128" height="128" viewBox="0 0 128 128"><path fill="#ED6D00" d="M128 118c0 5.5-4.5 10-10 10H10c-5.5 0-10-4.5-10-10V10C0 4.5 4.5 0 10 0h108c5.5 0 10 4.5 10 10v108z"/><path fill-rule="evenodd" clip-rule="evenodd" fill="#FFF" d="M10.1 51.3h.5c1.5.2 1.1 2.4 1.1 4.3V59c4.9-2.4 9.7-5.2 14.7-7.7h.5c.6.2 1.1.6 1 1.4-.1.9-1.2 1.2-2 1.6-2.3 1.2-4.8 2.6-6.9 3.7 2.2 1.5 4.5 3 6.9 4.5.6.4 1.9.9 2 1.8.1.8-.5 1.6-1.4 1.4-.4 0-.9-.5-1.3-.7-2.8-1.8-6-3.9-8.7-5.6-1.6.8-3.1 1.7-4.7 2.5-.1 1 .2 2 0 2.9-.4 1.3-2.6 1.2-2.8-.2V52.4c.1-.6.5-1 1.1-1.1zM100.9 51.3h.6c1.4.2 1.1 1.8 1.1 3.5 0 1-.1 2.2.5 2.6.6.4 2.1.2 3.2.2h10c.1-.8 0-1.8 0-2.8 0-1.7-.2-3.2 1.1-3.5h.6c.6.2.9.5 1.1 1.1v10.4c-.3 1.4-1.3 2.6-3.2 2.8-2.2.1-4.6 0-7.1 0h-3.6c-1.8 0-4.2.4-4.3-1.2-.1-1.8 2.6-1.2 4.3-1.2h7.2c1 0 2.8.2 3.4-.3.7-.5.3-1.8.4-2.9h-6.7c-2.4 0-4.8.1-6.7 0-1.3-.1-2.2-.8-2.7-1.7-.4-.8-.4-1.5-.4-2.9.1-1.8-.3-3.9 1.2-4.1z"/><path fill-rule="evenodd" clip-rule="evenodd" fill="#FFF" d="M117.9 51.3h1.1v1.1c-.2-.6-.5-1-1.1-1.1zM34 57.3h11c1.5 0 3.1-.2 2.9 1.4-.2 1.1-1.5.9-2.8.9H34c.1 1.3-.3 2.7.6 3.2.7.4 2.5.2 3.7.2h9.6c1.3 0 2.4-.1 2.4 1.2 0 1.6-2.6 1.2-4.4 1.2h-8.4c-1.4 0-3 .2-4-.2-1-.3-1.7-1.2-2-2-.3-1.1-.1-3.2-.1-4.7 0-1.4-.2-3.5.1-4.7.3-1.1 1.3-2.2 2.7-2.3 1.3-.1 2.6 0 4 0h9.9c1.3 0 2.4 0 2.3 1.2-.1 1.6-2.6 1.1-4.3 1.1h-7.9c-1.2 0-3.1-.2-3.6.3-.8.7-.5 2.2-.6 3.2zM64.8 59.8c1.9 1 4 2 6.2 3.1.7.4 1.6.7 1.7 1.4.1.8-.5 1.3-1 1.4-.7.1-1.3-.4-1.8-.6-3.3-1.8-6.4-3.3-9.8-5-.6-.3-1.1-.6-1.2-1.2-.1-1.6 1.6-1.3 3.2-1.3h2.6c1.8 0 4.5.3 5.1-.6.5-.8.4-2.3-.4-2.8-.6-.4-2-.3-3.1-.3h-9.8c-.1 3 0 5.5 0 8.4 0 1 .1 2.1-.2 2.6-.4.9-1.9 1.1-2.5.1-.3-.5-.2-2-.2-3v-6.4c0-1.1-.2-2.6.1-3.2.4-1 1.4-.9 2.9-.9h5.5c2.6 0 5-.2 7.4 0 .7.1 1.5.3 2 .6 1.4 1 1.9 3.9 1 5.8-1.1 2.5-4.3 2-7.7 1.9zM88 59.8c1.9 1 4.1 2.1 6.3 3.1.7.3 1.6.7 1.6 1.5 0 .7-.5 1.2-1 1.3-.7.1-1.3-.4-1.8-.6-3.2-1.7-6.3-3.2-9.6-5-.6-.3-1.2-.6-1.3-1.1-.3-1.6 1.5-1.4 3-1.4h4.9c1.3 0 2.6.1 3.1-.7.4-.8.2-2.1-.4-2.6-.6-.4-1.9-.3-3-.3h-10c-.1 3 0 5.4 0 8.3 0 1.5.3 3.2-.9 3.5-.7.2-1.5-.2-1.7-.8-.2-.6-.1-2.3-.1-3.1v-6.3c0-1.8-.4-3.7 1.1-4 1-.2 2.5 0 3.7 0h3.7c2.6 0 5-.2 7.3 0 1 .1 1.7.4 2.3.9 1.2 1.1 1.6 3.9.8 5.6-1.4 2.2-4.5 1.8-8 1.7zM24.7 71c1.1-.3.8 1.3.8 2.3 0 .7-.2 1.8.1 2.2.3.3 1 .2 1.4.2h3.2c.7 0 1.1 0 1 .6-.1.7-2 .4-2.9.4-1.4 0-3.6.3-4-.7-.2-.5-.1-1.5-.1-2.3.1-1.1-.1-2.5.5-2.7zM56.5 76.7h-.3c-.3-.1-.4-.2-.5-.6-.1-.8 0-1.9 0-3 0-.9-.3-2.4.7-2.3.8.1.5 1.6.5 2.4 0 1.1.2 2.1 0 2.9 0 .4-.2.5-.4.6zM81.5 76.7h-.3c-.3-.1-.4-.2-.5-.6-.1-.8 0-1.9 0-2.9 0-.9-.3-2.3.6-2.3.9 0 .6 1.5.6 2.3 0 1.1.1 2.2 0 2.9 0 .4-.1.5-.4.6zM35.1 71.1c.8-.1 2 0 3.2 0 1.2 0 2.3-.1 2.8.4s.3 1.3.3 2.2c0 1.4.1 2.6-.7 2.9-.7.3-2.2.1-3.2.1-1.4 0-3.1.2-3.6-.6-.2-.4-.1-1.6-.1-2.1.1-1.8-.1-2.7 1.3-2.9zm-.1 2.7c0 .5-.1 1.5.1 1.8.3.4 2 .1 2.6.1.7 0 2.2.2 2.6-.1.3-.3.1-1.3.1-1.7 0-.5.1-1.5-.1-1.7-.3-.3-1.7-.2-2.4-.2h-2.7c-.3.4-.2 1.2-.2 1.8zM51 75.6c.3-.3.4-1 .1-1.3-.6-.5-3.2.5-3.2-.6 0-.8 1.5-.5 2-.5.7 0 1.8-.1 2.2.3.4.4.3 1.8.1 2.3-.4 1-2.1.8-3.7.8-1.7 0-3.4.3-3.7-.8-.1-.5 0-1.3 0-2 0-1.7-.2-2.6 1.3-2.8 1.1-.1 3.7 0 5.1 0 .7 0 1.2 0 1.2.5 0 .7-2.1.5-3 .5h-1.7c-.5 0-1.3-.1-1.6.1-.3.2-.2 1.2-.2 1.7 0 .6-.1 1.5.1 1.7.3.4 2 .2 2.5.2 1 0 1.5 0 2.5-.1zM62 71.1c.8-.1 1.8 0 3.2 0 .9 0 2.6-.2 2.7.4.1.9-2 .6-2.9.6-1 0-2.9-.2-3.3.2-.2.2-.2.6-.1.8.2.6 1.6.4 2.9.4 1.2 0 2.4-.1 3 .3.9.7.5 2.4-.2 2.8-.5.3-1.1.2-1.7.2h-3.7c-.6 0-1.4.1-1.4-.5 0-.7 2.2-.5 3-.5h1.7c.9 0 2 .1 1.6-1-.2-.6-1.6-.4-2.8-.4-1 0-2.3.2-3-.2-.7-.4-.9-2-.3-2.6.3-.4.6-.5 1.3-.5zM74.3 76.7H74c-.3-.1-.4-.3-.5-.6-.2-1.1.1-2.9 0-4.1-.9-.2-3.2.5-3.2-.5 0-.6 1-.5 1.7-.5h4.3c.7 0 1.7-.2 1.7.5 0 .6-.9.5-1.3.5h-1.8c-.2 1.2.3 3.1 0 4.2-.2.3-.4.4-.6.5zM86.7 71.1c.7-.1 2 0 3.4 0 .9 0 2.9-.3 2.9.5s-1.8.5-3 .5h-1.7c-.6 0-1.4-.1-1.6.1-.2.2-.1 1.2-.1 1.7 0 .6-.1 1.4.1 1.7.2.2 1.1.2 1.7.2H92c.5 0 1.3 0 1.1.7-.2.5-2.6.3-3.3.3h-1.7c-1.2 0-2.1 0-2.4-.7-.2-.5-.1-1.3-.1-2.1-.2-1.6-.3-2.8 1.1-2.9zM97.7 71.1c.7-.1 1.9 0 3.2 0 .9 0 2.6-.2 2.7.4.1.9-2 .6-2.9.6H99c-.6 0-1.3-.1-1.5.2-.2.3-.1.7 0 .9.3.5 1.7.3 2.8.3 1.2 0 2.3-.2 2.9.2 1 .5.8 2.5 0 2.9-.8.4-2.4.2-3.5.2h-1.8c-.6 0-1.7.2-1.5-.6.1-.4.6-.3 1.4-.3h3.4c.6 0 1.3 0 1.4-.2.2-.3.1-.8 0-.9-.3-.4-2-.2-3.2-.2-1.1 0-2.4.1-2.9-.5-.8-.9-.1-2.3.3-2.6.2-.4.3-.4.9-.4z"/></svg>